<?xml version="1.0" encoding="UTF-8"?>
<svg id="Layer_2" xmlns="http://www.w3.org/2000/svg" viewBox="0 0 1587.58 783.35">
  <defs>
    <style>
      .cls-1 {
        fill: #67a8c5;
      }

      .cls-2, .cls-3 {
        letter-spacing: -.04em;
      }

      .cls-4 {
        fill: #324597;
      }

      .cls-5 {
        letter-spacing: -.04em;
      }

      .cls-6, .cls-7, .cls-3 {
        fill: #ebbe20;
      }

      .cls-8 {
        fill: #228dc9;
      }

      .cls-7, .cls-3 {
        font-family: FuturaPT-BoldObl, 'Futura PT';
        font-size: 143.27px;
        font-style: oblique;
        font-weight: 700;
      }

      .cls-9 {
        fill: #dd3d44;
      }

      .cls-10 {
        letter-spacing: -.06em;
      }

      .cls-11 {
        fill: #315299;
      }
    </style>
  </defs>
  <g id="Layer_1-2" data-name="Layer_1">
    <g>
      <g>
        <g>
          <polygon class="cls-11" points="52.96 12.9 1547.96 358.56 131.25 770.41 52.96 12.9"/>
          <path class="cls-1" d="M64.34,25.79l1444,333.87L139.97,757.46,64.34,25.79M41.57,0l2.88,27.85,75.62,731.67,2.46,23.84,23.01-6.69,1368.38-397.8,73.65-21.41-74.73-17.28L68.85,6.31,41.57,0h0Z"/>
        </g>
        <polygon class="cls-8" points="87.75 51.3 1437.09 364.63 158.42 737.96 87.75 51.3"/>
        <g>
          <g>
            <path class="cls-9" d="M178.12,585.08c-37.3,0-83.12-9.91-122.57-26.5l-.22-.09c-1.51-.69-3.16-1.43-4.94-2.23-7.94-3.58-18.82-8.47-32.02-15.16l-7.38-3.74,62.64-114.18,7.54,8.42c22.06,24.62,57.62,39.92,92.81,39.92,11.59,0,25.12-3.41,25.12-13.02,0-3.32,0-11.09-30.78-17.48-27.4-4.89-43.17-9.45-58.08-16.79-40.15-18.06-61.37-51.13-61.37-95.64,0-37.14,17.88-71.79,50.34-97.57,31.89-25.32,74.4-39.27,119.71-39.27,41.85,0,85.26,8.98,125.53,25.96l.21.09c6.05,2.76,14.34,6.53,25.14,12l7.39,3.74-61.3,111.11-7.44-6.13c-23.86-19.68-52.72-30.51-81.26-30.51-10.59,0-19.21,4.87-19.21,10.87,0,2.75.19,3.79,3.84,5.75,5.87,3.15,17.47,6.12,33.09,9.62l.1.02c28.91,6.88,51.83,15.42,66.27,24.72,28.95,17.64,46.93,51,46.93,87.1s-19,72.66-53.5,98.94c-33.89,25.82-78.85,40.04-126.61,40.04Z"/>
            <path class="cls-6" d="M218.93,199.75c40.22,0,82.8,8.62,122.43,25.34,5.92,2.7,14.2,6.47,24.84,11.86l-52.64,95.41c-24.84-20.48-55.59-32.34-86.35-32.34-15.38,0-27.21,8.09-27.21,18.87,0,11.32,7.1,15.09,43.17,23.18,27.21,6.47,49.68,14.55,63.87,23.72,26.61,16.17,43.17,47.44,43.17,80.32,0,72.23-76.89,130.99-172.11,130.99-36.67,0-81.03-9.7-119.47-25.87-8.28-3.77-20.7-9.16-36.67-17.25l53.23-97.03c23.66,26.41,61.51,42.58,98.77,42.58,20.11,0,33.12-8.09,33.12-21.02s-11.24-19.94-37.26-25.33c-27.21-4.85-41.99-9.16-56.19-16.17-37.26-16.71-56.78-46.9-56.78-88.4,0-71.69,72.15-128.83,162.05-128.83M218.93,183.75c-47.11,0-91.39,14.56-124.69,41-16.6,13.18-29.66,28.65-38.83,45.97-9.65,18.23-14.54,37.7-14.54,57.86,0,23.75,5.71,44.66,16.96,62.16,11.2,17.41,27.69,31.11,49,40.72,15.59,7.66,31.9,12.39,59.97,17.41,21.31,4.44,24.17,9.01,24.27,9.18,0,0,.03.14.03.44,0,.38,0,.85-1.56,1.83-1.52.96-6.08,3.19-15.56,3.19-32.99,0-66.27-14.28-86.85-37.26l-15.08-16.83-10.87,19.81-53.23,97.03-7.95,14.5,14.75,7.47c13.36,6.77,24.34,11.71,32.35,15.31,1.77.8,3.41,1.54,4.91,2.22l.21.1.22.09c40.38,16.99,87.36,27.13,125.67,27.13,49.5,0,96.19-14.8,131.46-41.68,17.56-13.38,31.4-29.06,41.14-46.6,10.29-18.54,15.51-38.29,15.51-58.71,0-18.81-4.67-37.48-13.5-53.98-8.18-15.27-19.61-28.1-33.25-37.37l8.09-14.66,52.64-95.41,8.01-14.51-14.79-7.49c-10.94-5.54-19.32-9.36-25.43-12.14l-.21-.09-.21-.09c-41.25-17.4-85.74-26.59-128.64-26.59h0ZM217.23,318.35c1.74-1.08,5.04-2.34,9.98-2.34,26.69,0,53.74,10.19,76.17,28.69l2.24,1.85c-14.8-7.56-34.49-14.29-58.74-20.06l-.1-.02-.1-.02c-11.45-2.57-18.92-4.47-24.21-6.17-2.37-.76-4.05-1.41-5.23-1.92h0Z"/>
          </g>
          <g>
            <g>
              <path class="cls-9" d="M769.32,477.29l14.23-117.35c.9-6.01,1.32-11.28,1.32-13.64,0-8.75-3.08-8.75-6.05-8.75-6.98,0-11.19,0-14.54,28.35l-13.5,111.39h-124.3l28.61-239.49h125.3l-1.65,9.38c-.49,2.8-.94,5.31-1.38,7.61,16.42-17.74,33.44-25.13,55.33-25.13,45.42,0,79.67,34.71,79.67,80.74,0,10.01-.95,21.15-2.39,34.81l-15.85,132.07h-124.79Z"/>
              <path class="cls-6" d="M832.69,237.67c41.22,0,71.67,31.11,71.67,72.74,0,9.57-.94,20.58-2.34,33.98l-14.99,124.9h-108.67l13.12-108.15c.94-6.22,1.41-11.96,1.41-14.84,0-11.01-4.68-16.75-14.05-16.75-14.52,0-19.2,7.66-22.48,35.41l-12.65,104.33h-108.2l26.7-223.49h108.67c-3.28,18.66-4.68,23.93-10.77,39.72l3.75.96c22.01-35.41,40.75-48.81,68.86-48.81M832.69,221.67c-16.53,0-30.8,4.06-43.52,12.41l.75-4.27h-141.93l-1.68,14.1-26.7,223.49-2.14,17.9h140.4l1.71-14.07,12.65-104.33c1.76-14.92,3.62-19.72,4.48-21.22.05,0,.1-.01.16-.02,0,.2,0,.42,0,.65,0,1.66-.33,6.52-1.23,12.45l-.03.23-.03.23-13.12,108.15-2.17,17.93h140.92l1.69-14.09,14.99-124.9v-.12s.03-.12.03-.12c1.46-13.91,2.43-25.29,2.43-35.65,0-50.59-37.69-88.74-87.67-88.74h0Z"/>
            </g>
            <g>
              <path class="cls-9" d="M906.11,477.29l28.61-239.49h124.31l-28.61,239.49h-124.31ZM1003.18,226.04c-37.84,0-67.49-26.01-67.49-59.21,0-16.23,7.69-32.42,21.11-44.43,13.41-12,30.71-18.61,48.72-18.61,37.09,0,68.42,27.55,68.42,60.16,0,34.81-31.08,62.08-70.77,62.08Z"/>
              <path class="cls-6" d="M1005.53,111.8c32.79,0,60.42,24.41,60.42,52.16,0,30.15-27.17,54.08-62.77,54.08-33.26,0-59.49-22.49-59.49-51.21s28.57-55.03,61.83-55.03M1050.02,245.8l-26.7,223.49h-108.2l26.7-223.49h108.2M1005.53,95.8c-19.98,0-39.17,7.33-54.05,20.65-15.11,13.52-23.78,31.88-23.78,50.39s8.11,35.84,22.84,48.5c7.46,6.41,16.24,11.29,25.82,14.46h-48.74l-1.68,14.1-26.7,223.49-2.14,17.9h140.43l1.68-14.1,26.7-223.49,2.14-17.9h-37.34c30.2-9.73,51.24-35.19,51.24-65.83,0-36.95-35-68.16-76.42-68.16h0Z"/>
            </g>
            <g>
              <path class="cls-9" d="M1163.37,483.51c-33.43,0-63.6-11.91-84.97-33.54-21.35-21.61-33.11-52.14-33.11-85.96,0-40.41,13-75.05,37.59-100.17,24.64-25.17,58.62-38.48,98.28-38.48,22.8,0,36.7,2.64,67.62,12.85l6.37,2.1-16.63,114.84,1.8-1.62-20.73,119.58-4.7,1.44c-23.51,7.21-33.62,8.96-51.53,8.96ZM1194.29,327.5c-16.16,0-26.19,11.6-26.19,30.28,0,16.14,8.47,25.02,23.85,25.02,11.35,0,20.38-3.98,31.17-13.73l13.61-12.3-10.14-12.02c-10.48-12.42-19.53-17.26-32.29-17.26Z"/>
              <path class="cls-6" d="M1181.17,233.36c21.55,0,34.66,2.39,65.11,12.44l-13.58,93.8c-11.71-13.88-22.95-20.1-38.41-20.1-20.61,0-34.19,15.31-34.19,38.28,0,20.58,12.18,33.02,31.85,33.02,13.58,0,24.36-4.79,36.54-15.79l-15.93,91.88c-23.42,7.18-32.79,8.61-49.18,8.61-64.64,0-110.07-45.94-110.07-111.5,0-78.01,51.52-130.65,127.87-130.65M1181.17,217.36c-20.8,0-40.34,3.55-58.07,10.56-17.6,6.96-33.05,17.16-45.93,30.32-12.85,13.13-22.81,28.87-29.59,46.78-6.82,18.01-10.28,37.86-10.28,58.99,0,18.1,3.1,35.22,9.2,50.89,6.04,15.51,14.86,29.2,26.21,40.69,22.88,23.17,55.08,35.92,90.66,35.92,18.65,0,29.72-1.92,53.87-9.32l9.4-2.88,1.68-9.68,15.93-91.88,7.92-45.71-2.54,2.3,12.49-86.24,1.92-13.28-12.74-4.21c-31.51-10.4-46.58-13.25-70.12-13.25h0ZM1191.94,374.81c-6.8,0-15.85-1.76-15.85-17.02,0-6.7,1.77-22.28,18.19-22.28,8.65,0,16.05,2.41,26.18,14.42l5.16,6.11-7.87,7.11c-10.75,9.71-17.84,11.66-25.81,11.66h0Z"/>
            </g>
            <g>
              <path class="cls-9" d="M485.87,496.19c-40.21,0-76.91-12.68-103.33-35.71-26.73-23.29-41.45-55.77-41.45-91.45s14.73-69.91,41.46-94c26.47-23.85,63-36.99,102.84-36.99,86.31,0,144.3,51.1,144.3,127.16s-61.84,130.99-143.83,130.99ZM487.27,341.62c-12.42,0-22.92,12.77-22.92,27.89,0,13.89,8.27,23.58,20.1,23.58,12.73,0,21.98-11.73,21.98-27.89,0-13.67-8.06-23.58-19.17-23.58Z"/>
              <path class="cls-6" d="M485.4,246.04c81.97,0,136.3,47.38,136.3,119.16s-58.55,122.99-135.83,122.99-136.77-50.25-136.77-119.16,58.08-122.99,136.3-122.99M484.46,401.09c17.33,0,29.98-15.31,29.98-35.89,0-18.19-11.71-31.58-27.17-31.58-16.86,0-30.92,16.27-30.92,35.89,0,18.19,11.71,31.58,28.1,31.58M485.4,230.04c-41.83,0-80.25,13.87-108.2,39.05-28.44,25.63-44.11,61.12-44.11,99.94s15.69,72.65,44.19,97.49c27.88,24.3,66.44,37.68,108.58,37.68s79.62-13.94,107.63-39.24c28.51-25.76,44.21-61.18,44.21-99.75,0-19.89-3.74-38.51-11.12-55.33-7.3-16.64-17.98-31.18-31.77-43.22-27.42-23.95-65.25-36.61-109.42-36.61h0ZM484.46,385.09c-8.36,0-12.1-7.83-12.1-15.58,0-10.6,6.97-19.89,14.92-19.89,6.47,0,11.17,6.55,11.17,15.58,0,9.89-4.8,19.89-13.98,19.89h0Z"/>
            </g>
          </g>
        </g>
      </g>
      <g>
        <text class="cls-7" transform="translate(296.94 586.52) scale(1.21 1)"><tspan class="cls-2" x="0" y="0">t</tspan><tspan class="cls-10" x="41.98" y="0">h</tspan><tspan class="cls-5" x="118.2" y="0">e</tspan></text>
        <text class="cls-3" transform="translate(589.91 586.52) scale(1.21 1)"><tspan x="0" y="0">comic</tspan></text>
      </g>
      <g>
        <g>
          <path class="cls-4" d="M646.23,581.89c-23.16,0-39.33-14.11-39.33-34.3,0-22.29,19.01-38.46,45.21-38.46,8.77,0,16.48,1.47,24.28,4.62l1.82.74-3.84,26.02-3.36-2.52c-5.21-3.91-8.8-5.23-14.23-5.23-9.32,0-15.83,5.86-15.83,14.26,0,7.05,5.01,11.25,13.41,11.25,4.83,0,8.22-1.1,13.93-4.52l4.52-2.71-3.94,26.88-1.57.43c-10.27,2.84-14.4,3.53-21.07,3.53Z"/>
          <path class="cls-6" d="M652.11,511.62c8.47,0,15.91,1.43,23.34,4.44l-2.94,19.91c-5.53-4.15-9.68-5.73-15.74-5.73-10.72,0-18.33,7.02-18.33,16.76,0,8.45,6.05,13.75,15.91,13.75,5.19,0,8.99-1.15,15.22-4.87l-2.94,20.06c-9.86,2.72-13.83,3.44-20.4,3.44-21.61,0-36.83-13.18-36.83-31.8,0-20.77,17.98-35.96,42.71-35.96M652.11,506.62c-13.13,0-25.15,4.04-33.85,11.37-8.94,7.53-13.86,18.04-13.86,29.59,0,10.49,4.28,19.96,12.04,26.67,7.56,6.54,18.14,10.14,29.79,10.14,7.38,0,11.9-.9,21.73-3.62l3.14-.87.47-3.23,2.94-20.06,1.53-10.43-9.04,5.41c-5.91,3.54-8.79,4.16-12.65,4.16-4.07,0-10.91-1.14-10.91-8.75,0-7.04,5.36-11.76,13.33-11.76,4.87,0,7.97,1.15,12.73,4.73l6.72,5.05,1.23-8.32,2.94-19.91.57-3.89-3.65-1.47c-8.1-3.28-16.12-4.81-25.22-4.81h0Z"/>
        </g>
        <g>
          <path class="cls-4" d="M721.96,581.89c-29.21,0-48.84-14.53-48.84-36.17s20.44-36.6,49.71-36.6,47.28,13.86,47.28,35.31-19.8,37.46-48.15,37.46ZM723.17,532.75c-9.12,0-16,6.32-16,14.69,0,6.76,5.07,10.97,13.23,10.97,9.22,0,15.66-6.1,15.66-14.83,0-6.78-4.82-10.82-12.89-10.82Z"/>
          <path class="cls-6" d="M722.83,511.62c27.15,0,44.78,12.89,44.78,32.81s-18.67,34.96-45.65,34.96-46.34-13.47-46.34-33.67,19.54-34.1,47.21-34.1M720.41,560.91c10.55,0,18.16-7.31,18.16-17.33,0-8.17-5.88-13.32-15.39-13.32-10.55,0-18.5,7.45-18.5,17.19,0,8.17,6.22,13.47,15.73,13.47M722.83,506.62c-14.41,0-27.52,3.74-36.91,10.53-9.86,7.14-15.3,17.28-15.3,28.57s5.28,21.51,14.86,28.46c9.21,6.68,21.83,10.21,36.48,10.21,29.82,0,50.65-16.43,50.65-39.96,0-11.26-5.06-21.17-14.26-27.91-8.85-6.48-21.13-9.9-35.53-9.9h0ZM720.41,555.91c-2.52,0-10.73-.61-10.73-8.47,0-6.95,5.8-12.19,13.5-12.19,3.88,0,10.39,1.08,10.39,8.32s-5.41,12.33-13.16,12.33h0Z"/>
        </g>
        <g>
          <path class="cls-4" d="M872.61,580.03l5.1-34.1c.36-2.53.66-5.45.66-6.36,0-5.05-4.39-5.81-7.01-5.81-6.91,0-10.5,2.04-12.23,13.63l-4.81,32.65h-33.59l5.45-36.25c.34-2.25.49-3.81.49-5.07,0-4.31-4.28-4.95-6.84-4.95-4.9,0-10.14,1.62-11.88,13.62l-4.81,32.66h-33.59l10.25-69.04h33.93l-1.16,4.43c6.54-4.46,13.08-6.29,21.61-6.29,11.1,0,17.81,2.79,22.98,9.79,8.31-6.84,16.9-9.79,28.21-9.79,16.75,0,27.57,8.29,27.57,21.12,0,3.14-.21,6.03-1.41,13.98l-5.51,35.79h-33.4Z"/>
          <path class="cls-6" d="M885.37,511.62c15.56,0,25.07,7.31,25.07,18.62,0,2.87-.17,5.59-1.38,13.61l-5.19,33.67h-28.36l4.67-31.23c.35-2.44.69-5.59.69-6.73,0-5.16-3.63-8.31-9.51-8.31-9.17,0-12.97,4.15-14.7,15.76l-4.5,30.52h-28.53l5.01-33.38c.35-2.29.52-4.01.52-5.44,0-4.58-3.46-7.45-9.34-7.45-8.3,0-12.8,5.01-14.35,15.76l-4.5,30.52h-28.53l9.51-64.04h28.53l-2.25,8.6c8.47-7.74,15.56-10.46,25.94-10.46,11.41,0,17.46,2.87,22.48,11.03,8.82-8.02,17.29-11.03,28.7-11.03M885.37,506.62c-11.04,0-19.63,2.67-27.8,8.79-5.44-6.25-12.45-8.79-23.39-8.79-6.78,0-12.38,1.09-17.67,3.61l.46-1.75h-39.32l-.63,4.27-9.51,64.04-.85,5.73h38.64l.63-4.27,4.5-30.52c1.53-10.6,5.66-11.49,9.41-11.49,4.34,0,4.34,1.78,4.34,2.45,0,1.11-.15,2.61-.46,4.7l-5.02,33.38-.86,5.74h38.66l.63-4.27,4.5-30.52c1.63-10.95,4.62-11.49,9.75-11.49,4.51,0,4.51,2.32,4.51,3.31,0,.63-.24,3.23-.64,6.03l-4.66,31.2-.86,5.74h38.45l.65-4.24,5.19-33.67c1.23-8.13,1.44-11.11,1.44-14.37,0-14.35-11.8-23.62-30.07-23.62h0Z"/>
        </g>
        <g>
          <path class="cls-4" d="M914.98,580.03l10.25-69.04h33.59l-10.25,69.04h-33.58ZM944.33,502.23c-10.13,0-18.06-6.76-18.06-15.39s7.93-15.39,18.06-15.39,18.06,6.76,18.06,15.39-7.93,15.39-18.06,15.39Z"/>
          <path class="cls-6" d="M944.33,473.95c8.65,0,15.56,5.73,15.56,12.89s-6.92,12.89-15.56,12.89-15.56-5.73-15.56-12.89,6.92-12.89,15.56-12.89M955.92,513.49l-9.51,64.04h-28.53l9.51-64.04h28.53M944.33,468.95c-11.53,0-20.56,7.86-20.56,17.89s9.03,17.89,20.56,17.89,20.56-7.86,20.56-17.89-9.03-17.89-20.56-17.89h0ZM961.72,508.49h-38.64l-.63,4.27-9.51,64.04-.85,5.73h38.64l.63-4.27,9.51-64.04.85-5.73h0Z"/>
        </g>
        <g>
          <path class="cls-4" d="M995.17,581.89c-23.16,0-39.33-14.11-39.33-34.3,0-22.29,19.01-38.46,45.21-38.46,8.77,0,16.48,1.47,24.28,4.62l1.82.74-3.84,26.02-3.36-2.52c-5.21-3.91-8.8-5.23-14.23-5.23-9.32,0-15.83,5.86-15.83,14.26,0,7.05,5.01,11.25,13.41,11.25,4.83,0,8.22-1.1,13.93-4.52l4.52-2.71-3.94,26.88-1.57.43c-10.27,2.84-14.4,3.53-21.07,3.53Z"/>
          <path class="cls-6" d="M1001.05,511.62c8.47,0,15.91,1.43,23.34,4.44l-2.94,19.91c-5.53-4.15-9.68-5.73-15.74-5.73-10.72,0-18.33,7.02-18.33,16.76,0,8.45,6.05,13.75,15.91,13.75,5.19,0,8.99-1.15,15.22-4.87l-2.94,20.06c-9.86,2.72-13.83,3.44-20.4,3.44-21.61,0-36.83-13.18-36.83-31.8,0-20.77,17.98-35.96,42.71-35.96M1001.05,506.62c-13.13,0-25.15,4.04-33.85,11.37-8.94,7.53-13.86,18.04-13.86,29.59,0,10.49,4.28,19.96,12.04,26.67,7.56,6.54,18.14,10.14,29.79,10.14,7.38,0,11.9-.9,21.74-3.62l3.14-.87.47-3.23,2.94-20.06,1.53-10.43-9.04,5.41c-5.91,3.54-8.79,4.16-12.65,4.16-4.07,0-10.91-1.14-10.91-8.75,0-7.04,5.36-11.76,13.33-11.76,4.87,0,7.97,1.15,12.73,4.73l6.72,5.05,1.23-8.32,2.94-19.91.57-3.89-3.65-1.47c-8.1-3.28-16.12-4.81-25.22-4.81h0Z"/>
        </g>
      </g>
      <g>
        <g>
          <polygon class="cls-4" points="314.92 579.88 321.66 534.04 309.57 534.04 312.87 510.84 325.14 510.84 328.09 489.78 361.69 489.78 358.57 510.84 373.78 510.84 370.47 534.04 355.24 534.04 348.32 579.88 314.92 579.88"/>
          <path class="cls-6" d="M358.79,492.28l-3.11,21.06h15.22l-2.59,18.19h-15.22l-6.92,45.84h-28.36l6.74-45.84h-12.1l2.59-18.19h12.28l2.94-21.06h28.53M364.58,487.28h-38.67l-.6,4.31-2.34,16.75h-12.26l-.61,4.29-2.59,18.19-.81,5.71h12.08l-5.9,40.12-.84,5.73h38.45l.64-4.25,6.27-41.59h15.25l.61-4.29,2.59-18.19.81-5.71h-15.19l2.27-15.33.85-5.73h0Z"/>
        </g>
        <g>
          <path class="cls-4" d="M415.37,579.88l4.23-28.51c1.04-6.49,1.18-7.9,1.18-10.09,0-5.52-2.21-7.67-7.88-7.67-6.88,0-10.68,2.13-12.4,13.77l-4.81,32.51h-33.59l16.31-109.44h33.59l-6.6,44.03c7.88-4.01,14.12-5.49,22.2-5.49,17.52,0,27.57,9.16,27.57,25.14,0,2.82-.34,6.31-1.07,10.99l-5.15,34.78h-33.59Z"/>
          <path class="cls-6" d="M409.11,472.94l-6.92,46.13c9.68-5.59,16.25-7.59,25.42-7.59,16.25,0,25.07,8.02,25.07,22.64,0,2.72-.35,6.16-1.04,10.6l-4.84,32.66h-28.53l3.8-25.64c1.04-6.45,1.21-8.02,1.21-10.46,0-6.88-3.29-10.17-10.38-10.17-9.16,0-13.14,4.16-14.87,15.9l-4.5,30.37h-28.53l15.56-104.44h28.53M414.91,467.94h-38.65l-.64,4.26-15.56,104.44-.85,5.74h38.64l.63-4.27,4.5-30.37c1.63-11.07,4.83-11.63,9.92-11.63,4.6,0,5.38,1.29,5.38,5.17,0,2.02-.11,3.24-1.15,9.66v.03s0,.03,0,.03l-3.8,25.64-.85,5.73h38.64l.63-4.27,4.84-32.66c.74-4.77,1.09-8.38,1.09-11.33,0-8.63-2.8-15.72-8.09-20.51-5.23-4.73-12.63-7.13-21.99-7.13-7,0-12.67,1.05-19.04,3.75l5.48-36.55.86-5.74h0Z"/>
        </g>
        <g>
          <path class="cls-4" d="M497.47,581.74c-12.64,0-23.39-3.1-31.08-8.96-5.29-4.23-11.53-11.9-11.53-24.62,0-15.24,8.49-24.37,13.55-28.45,6.06-4.89,16.98-10.73,34.6-10.73,16.04,0,25.61,5.14,30.82,9.46,9.32,7.73,11.28,18.56,11.28,26.28,0,1.97-.18,3.89-.36,5.69l-.23,2.25h-57.42c.2,2.17.84,4.84,2.89,6.39l.09.07c.68.56,2.73,1.86,7.22,1.86,2.39,0,4.41-.47,6.02-1.39,1.39-.8,2.25-1.75,2.7-2.98l.6-1.65h36.58l-1.38,3.43c-1.94,4.81-5.2,9.29-9.2,12.6-10.9,9.35-26.7,10.75-35.14,10.75ZM510.25,534.34c-.52-1.23-1.35-2.32-2.37-3.11-1.75-1.33-4.41-2.06-7.47-2.06s-6.34.99-8.26,2.58c-.87.72-1.58,1.64-2.11,2.59h20.22Z"/>
          <path class="cls-6" d="M503,511.48c14.52,0,23.69,4.3,29.22,8.88,7.95,6.59,10.38,16.05,10.38,24.36,0,1.86-.17,3.72-.35,5.44h-57.75c0,2.29,0,7.88,3.98,10.89,1.38,1.15,4.15,2.44,8.82,2.44,2.42,0,5.01-.43,7.26-1.72,2.25-1.29,3.29-2.87,3.8-4.3h31.12c-1.9,4.73-5.01,8.74-8.47,11.6-9.86,8.45-24.38,10.17-33.54,10.17-16.25,0-25.25-5.16-29.57-8.45-5.01-4.01-10.55-11.17-10.55-22.64,0-12.32,6.05-21.2,12.62-26.5,6.74-5.44,17.29-10.17,33.03-10.17M486.4,536.84h26.97c-.17-3.01-1.73-5.87-3.98-7.59-2.08-1.58-5.19-2.58-8.99-2.58s-7.61,1.29-9.86,3.15-3.63,4.73-4.15,7.02M503,506.48c-18.34,0-29.79,6.14-36.17,11.28-5.41,4.36-14.48,14.11-14.48,30.39,0,10.71,4.41,20.13,12.42,26.54l.05.04.05.04c8.13,6.2,19.41,9.48,32.6,9.48,8.78,0,25.23-1.47,36.77-11.35,4.29-3.57,7.8-8.38,9.89-13.56l1.68-4.17h.97l.45-4.5c.19-1.87.37-3.86.37-5.94,0-8.26-2.11-19.86-12.18-28.21-5.52-4.58-15.63-10.03-32.41-10.03h0ZM498.26,531.84c.67-.11,1.38-.17,2.14-.17.8,0,1.57.06,2.28.17h-4.43ZM490.16,555.16h13.72l-.22.6c-.16.44-.49,1.03-1.59,1.67-1.22.7-2.83,1.06-4.77,1.06-3.96,0-5.47-1.15-5.63-1.29l-.08-.07-.09-.07c-.61-.46-1.04-1.14-1.33-1.9h0Z"/>
        </g>
      </g>
    </g>
  </g>
</svg>