<?xml version="1.0" encoding="UTF-8"?>
<svg id="b" data-name="Layer 2" xmlns="http://www.w3.org/2000/svg" viewBox="0 0 911.64 447.7">
  <defs>
    <style>
      .d {
        stroke: #211c5a;
      }

      .d, .e {
        fill: none;
        stroke-width: 3px;
      }

      .d, .e, .f, .g, .h {
        font-family: Futura-ExtraBoldOblique, 'Futura Extra';
        font-size: 77px;
        font-style: oblique;
        font-weight: 700;
      }

      .i {
        fill: #0e3171;
      }

      .j {
        fill: #107eb2;
      }

      .e, .k, .l {
        stroke: #dbb631;
      }

      .f {
        fill: #211c5a;
      }

      .g {
        fill: #1e165c;
      }

      .m, .h {
        fill: #dbb631;
      }

      .n {
        fill: #6bbbc8;
      }

      .k {
        stroke-width: 8px;
      }

      .k, .l {
        fill: #c50f0c;
      }

      .l {
        stroke-width: 9px;
      }
    </style>
  </defs>
  <g id="c" data-name="Vector">
    <polygon class="n" points="26.15 0 911.64 202 74.75 447.7 26.15 0"/>
    <polygon class="i" points="38.52 13.9 868.84 203.32 84.09 433.7 38.52 13.9"/>
    <polygon class="j" points="50.89 27.8 826.03 204.63 93.44 419.7 50.89 27.8"/>
    <path class="l" d="M41.71,243.73l5.38,3.85c7.94,5.39,16.01,9.88,24.21,13.48,8.2,3.6,16.01,5.39,23.44,5.39,3.84,0,7.43-.96,10.76-2.89,3.33-1.93,6.15-6.17,6.15-10.59,0-3.59-1.41-6.03-4.23-7.32-2.82-1.28-6.79-2.18-11.91-2.69l-2.31-.39c-16.66-2.56-30.11-7.44-40.35-14.63-10.25-7.18-15.37-17.84-15.37-31.96,0-3.08.38-6.41,1.15-10.01,1.79-12.32,6.21-23.04,13.26-32.15,7.04-9.11,15.69-16.62,25.94-22.52,10.24-5.9,21.14-10.2,32.67-12.9,11.53-2.7,23.06-4.04,34.59-4.04,13.84,0,27.67,1.41,41.5,4.24,13.84,2.83,25.49,7.19,34.97,13.09l-33.05,56.6c-6.15-5.13-13.01-9.24-20.56-12.32-7.56-3.08-15.05-4.62-22.48-4.62-3.84,0-7.3.71-10.38,2.12-3.07,1.41-4.87,3.79-5.38,7.12,0,4.11,1.54,6.93,4.61,8.47,3.07,1.54,8.07,2.95,14.99,4.24.51,0,1.41.13,2.69.39,17.93,3.08,31.77,8.09,41.51,15.02,9.73,6.93,14.6,17.84,14.6,32.73,0,3.6-.38,7.45-1.15,11.55-2.05,12.58-6.67,23.68-13.83,33.31-7.18,9.63-16.02,17.52-26.52,23.68-10.51,6.16-21.85,10.72-34.01,13.67-12.17,2.95-24.28,4.43-36.32,4.43-14.86,0-29.66-1.99-44.39-5.97-14.74-3.98-29.92-9.56-45.54-16.75l35.36-61.61Z"/>
    <path class="k" d="M346.6,143.41c13.43,10.44,20.14,25.16,20.14,44.17,0,4.28-.34,8.65-1.03,13.1-1.71,10.96-5.48,20.8-11.29,29.53-5.82,8.73-13.09,16.05-21.81,21.95-8.72,5.91-18.31,10.4-28.74,13.48-10.44,3.08-21.04,4.62-31.82,4.62-9.75,0-19.03-1.28-27.84-3.85-8.81-2.57-16.55-6.33-23.22-11.3-6.67-4.96-11.89-11.13-15.65-18.49-3.76-7.36-5.64-15.66-5.64-24.91,0-3.6.26-7.27.77-11.04,1.88-11.64,5.69-22.04,11.42-31.2,5.73-9.16,12.87-16.82,21.43-22.98,8.55-6.16,18.09-10.82,28.61-13.99,10.52-3.17,21.43-4.75,32.71-4.75,21.21,0,38.53,5.22,51.96,15.66ZM272.32,185.39c-4.1,3.85-6.59,8.6-7.44,14.25,0,.51-.09,1.03-.26,1.54v1.54c0,4.62,1.45,8.39,4.36,11.3,2.91,2.91,6.67,4.37,11.29,4.37,5.13,0,9.79-1.8,13.98-5.39,4.19-3.6,6.71-8.04,7.57-13.35,0-.51.26-3.25.26-3.59,0-4.79-1.41-8.73-4.23-11.81-2.82-3.08-6.63-4.62-11.42-4.62-5.3,0-10.01,1.93-14.11,5.78Z"/>
    <path class="k" d="M436.84,154.83h1.53c8.85-8.76,16.55-15.11,23.1-19.06,6.55-3.95,14.68-5.93,24.38-5.93,13.44,0,23.36,3.78,29.74,11.34,6.38,7.56,9.57,17.69,9.57,30.4,0,4.3-.34,8.93-1.02,13.91l-13.27,84.24h-65.86l10.47-66.72c.68-3.95,1.02-6.96,1.02-9.02,0-3.09-.68-5.58-2.04-7.47-1.36-1.89-3.75-2.83-7.15-2.83-4.77,0-8.08,1.76-9.96,5.28-1.87,3.52-3.23,8.2-4.08,14.04l-10.46,66.72h-65.86l21.44-136.8h64.33l-5.87,21.9Z"/>
    <path class="k" d="M537.62,133.23h66.07l-21.51,136.5h-66.07l21.51-136.5ZM608.2,62.93c5.89,4.72,8.83,11.18,8.83,19.41,0,1.89-.17,3.69-.51,5.4-1.71,10.46-6.45,18.42-14.21,23.91-7.77,5.49-16.86,8.23-27.27,8.23-9.05,0-16.61-2.19-22.66-6.55-6.06-4.37-9.09-10.93-9.09-19.67,0-1.88.17-3.86.51-5.91,1.54-9.77,6.19-17.52,13.96-23.26,7.77-5.74,16.94-8.61,27.53-8.61,9.39,0,17.03,2.36,22.92,7.07Z"/>
    <path class="k" d="M707.82,191.71c-3.58-3.62-7.17-6.41-10.75-8.39-3.59-1.98-7.51-2.97-11.78-2.97-6.15,0-11.44,1.85-15.88,5.55-4.44,3.7-7.17,8.65-8.19,14.85v1.55c-.17.69-.26,1.21-.26,1.55,0,4.65,1.58,8.57,4.74,11.75,3.16,3.19,7.13,4.78,11.91,4.78s8.92-.9,12.93-2.71c4.01-1.81,8.83-4.43,14.47-7.88l-11.78,56.29c-6.49,2.07-12.51,3.66-18.05,4.78-5.55,1.12-10.97,1.68-16.26,1.68-19.97,0-35.9-4.95-47.76-14.85-11.87-9.9-17.8-23.97-17.8-42.22,0-4.48.42-9.12,1.28-13.95,1.54-9.98,4.74-19.41,9.6-28.28,4.87-8.86,10.97-16.61,18.31-23.24,7.34-6.62,15.58-11.75,24.71-15.36,9.13-3.62,18.73-5.42,28.81-5.42,13.48,0,26.97,2.32,40.46,6.97l-8.71,55.52Z"/>
    <g>
      <text class="h" transform="translate(155.69 333.04)"><tspan x="0" y="0">the comic</tspan></text>
      <text class="g" transform="translate(163.63 327.41)"><tspan x="0" y="0">the comic</tspan></text>
      <text class="e" transform="translate(163.63 327.41)"><tspan x="0" y="0">the comic</tspan></text>
    </g>
    <polygon class="m" points="209.65 263.47 201.81 263.47 198.27 285.74 206.11 285.74 209.65 263.47"/>
    <g>
      <text class="f" transform="translate(87.04 402.68)"><tspan x="0" y="0">rescan project</tspan></text>
      <text class="h" transform="translate(95.48 397.05)"><tspan x="0" y="0">rescan project</tspan></text>
      <text class="d" transform="translate(95.48 397.05)"><tspan x="0" y="0">rescan project</tspan></text>
    </g>
  </g>
</svg>