<?xml version="1.0" encoding="UTF-8"?>
<svg id="b" data-name="Layer 2" xmlns="http://www.w3.org/2000/svg" viewBox="0 0 911.64 447.7">
  <defs>
    <style>
      .d {
        stroke: #211c5a;
      }

      .d, .e {
        fill: none;
        stroke-width: 3px;
      }

      .f {
        fill: #0e3171;
      }

      .g {
        fill: #107eb2;
      }

      .e, .h, .i {
        stroke: #dbb631;
      }

      .j {
        fill: #211c5a;
      }

      .k {
        fill: #dbb631;
      }

      .l {
        fill: #1e165c;
      }

      .m {
        fill: #6bbbc8;
      }

      .h {
        stroke-width: 8px;
      }

      .h, .i {
        fill: #c50f0c;
      }

      .i {
        stroke-width: 9px;
      }
    </style>
  </defs>
  <g id="c" data-name="Vector">
    <polygon class="m" points="26.15 0 911.64 202 74.75 447.7 26.15 0"/>
    <polygon class="f" points="38.52 13.9 868.84 203.32 84.09 433.7 38.52 13.9"/>
    <polygon class="g" points="50.89 27.8 826.03 204.63 93.44 419.7 50.89 27.8"/>
    <path class="i" d="M41.71,243.73l5.38,3.85c7.94,5.39,16.01,9.88,24.21,13.48,8.2,3.6,16.01,5.39,23.44,5.39,3.84,0,7.43-.96,10.76-2.89,3.33-1.93,6.15-6.17,6.15-10.59,0-3.59-1.41-6.03-4.23-7.32-2.82-1.28-6.79-2.18-11.91-2.69l-2.31-.39c-16.66-2.56-30.11-7.44-40.35-14.63-10.25-7.18-15.37-17.84-15.37-31.96,0-3.08.38-6.41,1.15-10.01,1.79-12.32,6.21-23.04,13.26-32.15,7.04-9.11,15.69-16.62,25.94-22.52,10.24-5.9,21.14-10.2,32.67-12.9,11.53-2.7,23.06-4.04,34.59-4.04,13.84,0,27.67,1.41,41.5,4.24,13.84,2.83,25.49,7.19,34.97,13.09l-33.05,56.6c-6.15-5.13-13.01-9.24-20.56-12.32-7.56-3.08-15.05-4.62-22.48-4.62-3.84,0-7.3.71-10.38,2.12-3.07,1.41-4.87,3.79-5.38,7.12,0,4.11,1.54,6.93,4.61,8.47,3.07,1.54,8.07,2.95,14.99,4.24.51,0,1.41.13,2.69.39,17.93,3.08,31.77,8.09,41.51,15.02,9.73,6.93,14.6,17.84,14.6,32.73,0,3.6-.38,7.45-1.15,11.55-2.05,12.58-6.67,23.68-13.83,33.31-7.18,9.63-16.02,17.52-26.52,23.68-10.51,6.16-21.85,10.72-34.01,13.67-12.17,2.95-24.28,4.43-36.32,4.43-14.86,0-29.66-1.99-44.39-5.97-14.74-3.98-29.92-9.56-45.54-16.75l35.36-61.61Z"/>
    <path class="h" d="M346.6,143.41c13.43,10.44,20.14,25.16,20.14,44.17,0,4.28-.34,8.65-1.03,13.1-1.71,10.96-5.48,20.8-11.29,29.53-5.82,8.73-13.09,16.05-21.81,21.95-8.72,5.91-18.31,10.4-28.74,13.48-10.44,3.08-21.04,4.62-31.82,4.62-9.75,0-19.03-1.28-27.84-3.85-8.81-2.57-16.55-6.33-23.22-11.3-6.67-4.96-11.89-11.13-15.65-18.49-3.76-7.36-5.64-15.66-5.64-24.91,0-3.6.26-7.27.77-11.04,1.88-11.64,5.69-22.04,11.42-31.2,5.73-9.16,12.87-16.82,21.43-22.98,8.55-6.16,18.09-10.82,28.61-13.99,10.52-3.17,21.43-4.75,32.71-4.75,21.21,0,38.53,5.22,51.96,15.66ZM272.32,185.39c-4.1,3.85-6.59,8.6-7.44,14.25,0,.51-.09,1.03-.26,1.54v1.54c0,4.62,1.45,8.39,4.36,11.3,2.91,2.91,6.67,4.37,11.29,4.37,5.13,0,9.79-1.8,13.98-5.39,4.19-3.6,6.71-8.04,7.57-13.35,0-.51.26-3.25.26-3.59,0-4.79-1.41-8.73-4.23-11.81-2.82-3.08-6.63-4.62-11.42-4.62-5.3,0-10.01,1.93-14.11,5.78Z"/>
    <path class="h" d="M436.84,154.83h1.53c8.85-8.76,16.55-15.11,23.1-19.06,6.55-3.95,14.68-5.93,24.38-5.93,13.44,0,23.36,3.78,29.74,11.34,6.38,7.56,9.57,17.69,9.57,30.4,0,4.3-.34,8.93-1.02,13.91l-13.27,84.24h-65.86l10.47-66.72c.68-3.95,1.02-6.96,1.02-9.02,0-3.09-.68-5.58-2.04-7.47-1.36-1.89-3.75-2.83-7.15-2.83-4.77,0-8.08,1.76-9.96,5.28-1.87,3.52-3.23,8.2-4.08,14.04l-10.46,66.72h-65.86l21.44-136.8h64.33l-5.87,21.9Z"/>
    <path class="h" d="M537.62,133.23h66.07l-21.51,136.5h-66.07l21.51-136.5ZM608.2,62.93c5.89,4.72,8.83,11.18,8.83,19.41,0,1.89-.17,3.69-.51,5.4-1.71,10.46-6.45,18.42-14.21,23.91-7.77,5.49-16.86,8.23-27.27,8.23-9.05,0-16.61-2.19-22.66-6.55-6.06-4.37-9.09-10.93-9.09-19.67,0-1.88.17-3.86.51-5.91,1.54-9.77,6.19-17.52,13.96-23.26,7.77-5.74,16.94-8.61,27.53-8.61,9.39,0,17.03,2.36,22.92,7.07Z"/>
    <path class="h" d="M707.82,191.71c-3.58-3.62-7.17-6.41-10.75-8.39-3.59-1.98-7.51-2.97-11.78-2.97-6.15,0-11.44,1.85-15.88,5.55-4.44,3.7-7.17,8.65-8.19,14.85v1.55c-.17.69-.26,1.21-.26,1.55,0,4.65,1.58,8.57,4.74,11.75,3.16,3.19,7.13,4.78,11.91,4.78s8.92-.9,12.93-2.71c4.01-1.81,8.83-4.43,14.47-7.88l-11.78,56.29c-6.49,2.07-12.51,3.66-18.05,4.78-5.55,1.12-10.97,1.68-16.26,1.68-19.97,0-35.9-4.95-47.76-14.85-11.87-9.9-17.8-23.97-17.8-42.22,0-4.48.42-9.12,1.28-13.95,1.54-9.98,4.74-19.41,9.6-28.28,4.87-8.86,10.97-16.61,18.31-23.24,7.34-6.62,15.58-11.75,24.71-15.36,9.13-3.62,18.73-5.42,28.81-5.42,13.48,0,26.97,2.32,40.46,6.97l-8.71,55.52Z"/>
    <g>
      <g>
        <path class="k" d="M188.55,292.69l6.67-.31-2.47,15.63-6.56-.38-4.01,25.41h-20.02l4.01-25.41-4.91.38,2.47-15.63,4.8.31,2.16-13.71h20.02l-2.16,13.71Z"/>
        <path class="k" d="M202.74,270.59h19.87l-2.72,17.25-2.71,11.32h.31c4.39-4.39,8.72-7.93,14.42-7.93,10.16,0,12.57,7.7,11.15,16.71l-3.96,25.1h-19.4l3.33-21.1c.34-2.16.46-4.85-2.39-4.85-3.08,0-4.14,2.31-4.54,4.85l-3.33,21.1h-19.87l9.85-62.44Z"/>
        <path class="k" d="M267.81,315.95c-.52,3.31-.57,7.01,3.59,7.01,2.08,0,3.85-1.46,4.54-3.39h19.33c-4.17,9.86-15.9,14.4-25.29,14.4-12.86,0-23.59-6.62-21.37-20.71,2.14-13.55,13.95-22.02,26.96-22.02,14.55,0,24.54,9.39,21.12,24.72h-28.87ZM278.46,307.48c.44-2.77-1.16-5.31-4.01-5.31-3,0-4.85,2.46-5.3,5.31h9.32Z"/>
        <path class="k" d="M368.17,309.86c-1.8-1.77-3.93-3.39-6.78-3.39-3.62,0-6.61,2.39-7.2,6.08-.51,3.23,1.69,5.85,4.93,5.85s5.63-1.54,8.2-3.16l-3.5,16.79c-3.24,1-6.85,1.92-10.31,1.92-13.24,0-21.54-7.47-19.37-21.17,1.91-12.09,12.26-21.56,24.5-21.56,4.16,0,8.35.77,12.15,2.08l-2.61,16.55Z"/>
        <path class="k" d="M423.64,313.1c-2.14,13.55-15.3,20.87-28.08,20.87s-23.64-7.31-21.5-20.87c2.26-14.32,14.77-21.87,28.24-21.87s23.6,7.55,21.34,21.87ZM393.35,312.79c-.51,3.23,1.58,5.62,4.66,5.62s5.92-2.39,6.43-5.62c.52-3.31-1.29-6.01-4.6-6.01s-5.97,2.7-6.49,6.01Z"/>
        <path class="k" d="M450.98,299.39h.62c2.41-5,7.91-8.16,13.15-8.16,5.85,0,9.43,3.16,10.33,8.7h.46c3.21-5.7,7.46-8.7,13.77-8.7,9.78,0,12.9,7.55,11.5,16.4l-4.01,25.41h-19.25l3.2-20.25c.38-2.39.86-5.47-2.06-5.47s-3.33,3.08-3.71,5.47l-3.2,20.25h-19.25l3.2-20.25c.38-2.39.86-5.47-2.06-5.47s-3.33,3.08-3.71,5.47l-3.19,20.25h-19.25l6.45-40.88h18.79l-1.76,7.24Z"/>
        <path class="k" d="M512.64,292.15h19.87l-6.45,40.88h-19.86l6.45-40.88ZM535.5,279.53c-1.06,6.7-6.75,9.62-12.45,9.62s-10.47-2.93-9.42-9.62c.94-5.93,6.2-9.55,12.44-9.55s10.36,3.62,9.43,9.55Z"/>
        <path class="k" d="M570.76,309.86c-1.8-1.77-3.93-3.39-6.78-3.39-3.62,0-6.61,2.39-7.2,6.08-.51,3.23,1.69,5.85,4.93,5.85s5.63-1.54,8.2-3.16l-3.5,16.79c-3.24,1-6.85,1.92-10.31,1.92-13.24,0-21.54-7.47-19.37-21.17,1.91-12.09,12.26-21.56,24.5-21.56,4.16,0,8.35.77,12.14,2.08l-2.61,16.55Z"/>
      </g>
      <g>
        <path class="l" d="M196.48,287.07l6.67-.31-2.47,15.63-6.56-.38-4.01,25.41h-20.02l4.01-25.41-4.91.38,2.47-15.63,4.8.31,2.16-13.71h20.02l-2.16,13.71Z"/>
        <path class="l" d="M210.68,264.97h19.87l-2.72,17.25-2.71,11.32h.31c4.39-4.39,8.72-7.93,14.42-7.93,10.16,0,12.57,7.7,11.15,16.71l-3.96,25.1h-19.4l3.33-21.1c.34-2.16.46-4.85-2.39-4.85-3.08,0-4.14,2.31-4.54,4.85l-3.33,21.1h-19.87l9.85-62.44Z"/>
        <path class="l" d="M275.74,310.32c-.52,3.31-.57,7.01,3.59,7.01,2.08,0,3.85-1.46,4.54-3.39h19.33c-4.17,9.86-15.9,14.4-25.29,14.4-12.86,0-23.59-6.62-21.37-20.71,2.14-13.55,13.95-22.02,26.96-22.02,14.55,0,24.54,9.39,21.12,24.72h-28.87ZM286.4,301.85c.44-2.77-1.16-5.31-4.01-5.31-3,0-4.85,2.46-5.3,5.31h9.32Z"/>
        <path class="l" d="M376.11,304.24c-1.8-1.77-3.93-3.39-6.78-3.39-3.62,0-6.61,2.39-7.2,6.08-.51,3.23,1.69,5.85,4.93,5.85s5.63-1.54,8.2-3.16l-3.5,16.79c-3.24,1-6.85,1.92-10.31,1.92-13.24,0-21.54-7.47-19.37-21.17,1.91-12.09,12.26-21.56,24.5-21.56,4.16,0,8.35.77,12.15,2.08l-2.61,16.55Z"/>
        <path class="l" d="M431.58,307.47c-2.14,13.55-15.3,20.87-28.08,20.87s-23.64-7.31-21.5-20.87c2.26-14.32,14.77-21.87,28.24-21.87s23.6,7.55,21.34,21.87ZM401.29,307.16c-.51,3.23,1.58,5.62,4.66,5.62s5.92-2.39,6.43-5.62c.52-3.31-1.29-6.01-4.6-6.01s-5.97,2.7-6.49,6.01Z"/>
        <path class="l" d="M458.92,293.76h.62c2.41-5,7.91-8.16,13.15-8.16,5.85,0,9.43,3.16,10.33,8.7h.46c3.21-5.7,7.46-8.7,13.77-8.7,9.78,0,12.9,7.55,11.5,16.4l-4.01,25.41h-19.25l3.2-20.25c.38-2.39.86-5.47-2.06-5.47s-3.33,3.08-3.71,5.47l-3.2,20.25h-19.25l3.2-20.25c.38-2.39.86-5.47-2.06-5.47s-3.33,3.08-3.71,5.47l-3.19,20.25h-19.25l6.45-40.88h18.79l-1.76,7.24Z"/>
        <path class="l" d="M520.58,286.53h19.87l-6.45,40.88h-19.86l6.45-40.88ZM543.44,273.9c-1.06,6.7-6.75,9.62-12.45,9.62s-10.47-2.93-9.42-9.62c.94-5.93,6.2-9.55,12.44-9.55s10.36,3.62,9.43,9.55Z"/>
        <path class="l" d="M578.69,304.24c-1.8-1.77-3.93-3.39-6.78-3.39-3.62,0-6.61,2.39-7.2,6.08-.51,3.23,1.69,5.85,4.93,5.85s5.63-1.54,8.2-3.16l-3.5,16.79c-3.24,1-6.85,1.92-10.31,1.92-13.24,0-21.54-7.47-19.37-21.17,1.91-12.09,12.26-21.56,24.5-21.56,4.16,0,8.35.77,12.14,2.08l-2.61,16.55Z"/>
      </g>
      <g>
        <path class="e" d="M196.48,287.07l6.67-.31-2.47,15.63-6.56-.38-4.01,25.41h-20.02l4.01-25.41-4.91.38,2.47-15.63,4.8.31,2.16-13.71h20.02l-2.16,13.71Z"/>
        <path class="e" d="M210.68,264.97h19.87l-2.72,17.25-2.71,11.32h.31c4.39-4.39,8.72-7.93,14.42-7.93,10.16,0,12.57,7.7,11.15,16.71l-3.96,25.1h-19.4l3.33-21.1c.34-2.16.46-4.85-2.39-4.85-3.08,0-4.14,2.31-4.54,4.85l-3.33,21.1h-19.87l9.85-62.44Z"/>
        <path class="e" d="M275.74,310.32c-.52,3.31-.57,7.01,3.59,7.01,2.08,0,3.85-1.46,4.54-3.39h19.33c-4.17,9.86-15.9,14.4-25.29,14.4-12.86,0-23.59-6.62-21.37-20.71,2.14-13.55,13.95-22.02,26.96-22.02,14.55,0,24.54,9.39,21.12,24.72h-28.87ZM286.4,301.85c.44-2.77-1.16-5.31-4.01-5.31-3,0-4.85,2.46-5.3,5.31h9.32Z"/>
        <path class="e" d="M376.11,304.24c-1.8-1.77-3.93-3.39-6.78-3.39-3.62,0-6.61,2.39-7.2,6.08-.51,3.23,1.69,5.85,4.93,5.85s5.63-1.54,8.2-3.16l-3.5,16.79c-3.24,1-6.85,1.92-10.31,1.92-13.24,0-21.54-7.47-19.37-21.17,1.91-12.09,12.26-21.56,24.5-21.56,4.16,0,8.35.77,12.15,2.08l-2.61,16.55Z"/>
        <path class="e" d="M431.58,307.47c-2.14,13.55-15.3,20.87-28.08,20.87s-23.64-7.31-21.5-20.87c2.26-14.32,14.77-21.87,28.24-21.87s23.6,7.55,21.34,21.87ZM401.29,307.16c-.51,3.23,1.58,5.62,4.66,5.62s5.92-2.39,6.43-5.62c.52-3.31-1.29-6.01-4.6-6.01s-5.97,2.7-6.49,6.01Z"/>
        <path class="e" d="M458.92,293.76h.62c2.41-5,7.91-8.16,13.15-8.16,5.85,0,9.43,3.16,10.33,8.7h.46c3.21-5.7,7.46-8.7,13.77-8.7,9.78,0,12.9,7.55,11.5,16.4l-4.01,25.41h-19.25l3.2-20.25c.38-2.39.86-5.47-2.06-5.47s-3.33,3.08-3.71,5.47l-3.2,20.25h-19.25l3.2-20.25c.38-2.39.86-5.47-2.06-5.47s-3.33,3.08-3.71,5.47l-3.19,20.25h-19.25l6.45-40.88h18.79l-1.76,7.24Z"/>
        <path class="e" d="M520.58,286.53h19.87l-6.45,40.88h-19.86l6.45-40.88ZM543.44,273.9c-1.06,6.7-6.75,9.62-12.45,9.62s-10.47-2.93-9.42-9.62c.94-5.93,6.2-9.55,12.44-9.55s10.36,3.62,9.43,9.55Z"/>
        <path class="e" d="M578.69,304.24c-1.8-1.77-3.93-3.39-6.78-3.39-3.62,0-6.61,2.39-7.2,6.08-.51,3.23,1.69,5.85,4.93,5.85s5.63-1.54,8.2-3.16l-3.5,16.79c-3.24,1-6.85,1.92-10.31,1.92-13.24,0-21.54-7.47-19.37-21.17,1.91-12.09,12.26-21.56,24.5-21.56,4.16,0,8.35.77,12.14,2.08l-2.61,16.55Z"/>
      </g>
    </g>
    <polygon class="k" points="209.65 263.47 201.81 263.47 198.27 285.74 206.11 285.74 209.65 263.47"/>
    <g>
      <g>
        <path class="j" d="M127.95,381.04c-1.88-1.23-3.19-2.23-5.73-2.23-5.16,0-8.26,3.08-9.06,8.16l-2.48,15.71h-19.86l6.45-40.88h19.86l-1.32,5.47h.46c4.39-5.39,8.19-6.54,14.87-6.39l-3.18,20.17Z"/>
        <path class="j" d="M150.11,385.58c-.52,3.31-.57,7.01,3.59,7.01,2.08,0,3.85-1.46,4.54-3.39h19.33c-4.17,9.86-15.9,14.4-25.29,14.4-12.86,0-23.59-6.62-21.37-20.71,2.14-13.55,13.95-22.02,26.96-22.02,14.55,0,24.54,9.39,21.12,24.72h-28.87ZM160.76,377.11c.44-2.77-1.16-5.31-4.01-5.31-3,0-4.85,2.46-5.3,5.31h9.32Z"/>
        <path class="j" d="M187.19,386.74l1.11.77c2.5,1.69,6.18,3.77,9.57,3.77,1.31,0,3.04-.69,3.28-2.23.35-2.23-2.02-2.31-3.6-2.54-6.48-.92-12.21-3.62-11-11.32,1.62-10.24,12.58-14.32,21.35-14.32,5.08,0,11.24,1,15.31,3.46l-6.64,11.32c-2.25-1.85-5.39-3.39-8.63-3.39-1.23,0-2.91.38-3.14,1.85-.32,2,1.82,2.16,4.52,2.62,6.9,1.15,12.29,3.62,10.99,11.86-1.68,10.62-12.92,15.01-22.16,15.01-6.47,0-12.47-2-17.99-4.54l7.03-12.32Z"/>
        <path class="j" d="M259.48,379.5c-1.8-1.77-3.93-3.39-6.78-3.39-3.62,0-6.61,2.39-7.2,6.08-.51,3.23,1.69,5.85,4.93,5.85s5.63-1.54,8.2-3.16l-3.5,16.79c-3.24,1-6.85,1.92-10.31,1.92-13.24,0-21.54-7.47-19.37-21.17,1.91-12.09,12.26-21.56,24.5-21.56,4.16,0,8.35.77,12.15,2.08l-2.61,16.55Z"/>
        <path class="j" d="M293.02,397.29h-.46c-4.23,3.85-7.85,6.31-13.47,6.31-11.09,0-15.47-11.24-13.91-21.17,1.63-10.32,9.64-21.56,21.19-21.56,4.93,0,8.73,1.77,11.02,5.77h.46l.15-4.85h19.48l-6.45,40.88h-19.48l1.47-5.39ZM289.16,388.05c3.77,0,5.79-3,6.28-6.16.5-3.16-1.29-5.47-4.45-5.47s-5.57,2.62-6.05,5.62c-.51,3.23.59,6.01,4.21,6.01Z"/>
        <path class="j" d="M342.86,368.34h.46c4.55-4.47,7.95-7.47,14.35-7.47,10.16,0,12.96,7.62,11.54,16.63l-3.97,25.18h-19.86l3.15-19.94c.38-2.39.91-5.77-2.48-5.77s-3.85,3.39-4.22,5.77l-3.15,19.94h-19.87l6.45-40.88h19.4l-1.8,6.54Z"/>
        <path class="j" d="M428.8,368.26h.62c2.97-4.7,8.79-7.39,13.95-7.39,11.47,0,15.32,10.78,13.7,21.02-1.52,9.62-9.43,21.71-20.59,21.71-4.47,0-9.46-2.54-11.06-6.54h-.54l-.11,6.54-2.52,15.94h-19.86l9.11-57.75h18.94l-1.64,6.47ZM427.22,382.2c-.49,3.08.85,5.85,4.16,5.85,3.08,0,5.67-3.23,6.11-6.01.45-2.85-1.27-5.62-4.27-5.62-3.31,0-5.52,2.77-5.99,5.78Z"/>
        <path class="j" d="M497.16,381.04c-1.88-1.23-3.19-2.23-5.73-2.23-5.16,0-8.26,3.08-9.07,8.16l-2.48,15.71h-19.87l6.45-40.88h19.87l-1.33,5.47h.46c4.39-5.39,8.19-6.54,14.87-6.39l-3.18,20.17Z"/>
        <path class="j" d="M549.79,382.73c-2.14,13.55-15.3,20.87-28.08,20.87s-23.64-7.31-21.5-20.87c2.26-14.32,14.77-21.87,28.24-21.87s23.6,7.55,21.34,21.87ZM519.5,382.43c-.51,3.23,1.58,5.62,4.66,5.62s5.92-2.39,6.43-5.62c.52-3.31-1.29-6.01-4.6-6.01s-5.97,2.7-6.49,6.01Z"/>
        <path class="j" d="M560.95,361.79h19.87l-9.11,57.75h-19.87l9.11-57.75ZM583.81,349.16c-1.06,6.7-6.75,9.62-12.45,9.62s-10.47-2.93-9.42-9.62c.94-5.93,6.2-9.55,12.44-9.55s10.36,3.62,9.43,9.55Z"/>
        <path class="j" d="M604.47,385.58c-.52,3.31-.57,7.01,3.59,7.01,2.08,0,3.85-1.46,4.54-3.39h19.33c-4.17,9.86-15.9,14.4-25.29,14.4-12.86,0-23.59-6.62-21.37-20.71,2.14-13.55,13.95-22.02,26.96-22.02,14.55,0,24.54,9.39,21.12,24.72h-28.87ZM615.13,377.11c.44-2.77-1.16-5.31-4.01-5.31-3,0-4.85,2.46-5.3,5.31h9.32Z"/>
        <path class="j" d="M672.81,379.5c-1.8-1.77-3.93-3.39-6.78-3.39-3.62,0-6.61,2.39-7.2,6.08-.51,3.23,1.69,5.85,4.93,5.85s5.63-1.54,8.2-3.16l-3.5,16.79c-3.24,1-6.85,1.92-10.31,1.92-13.24,0-21.54-7.47-19.37-21.17,1.91-12.09,12.26-21.56,24.5-21.56,4.16,0,8.35.77,12.14,2.08l-2.61,16.55Z"/>
        <path class="j" d="M705.7,362.33l6.67-.31-2.47,15.63-6.56-.38-4.01,25.41h-20.02l4.01-25.41-4.91.38,2.47-15.63,4.8.31,2.16-13.71h20.02l-2.16,13.71Z"/>
      </g>
      <g>
        <path class="k" d="M136.39,375.41c-1.88-1.23-3.19-2.23-5.73-2.23-5.16,0-8.26,3.08-9.06,8.16l-2.48,15.71h-19.86l6.45-40.88h19.86l-1.32,5.47h.46c4.39-5.39,8.19-6.54,14.87-6.39l-3.18,20.17Z"/>
        <path class="k" d="M158.55,379.96c-.52,3.31-.57,7.01,3.59,7.01,2.08,0,3.85-1.46,4.54-3.39h19.33c-4.17,9.86-15.9,14.4-25.29,14.4-12.86,0-23.59-6.62-21.37-20.71,2.14-13.55,13.95-22.02,26.96-22.02,14.55,0,24.54,9.39,21.12,24.72h-28.87ZM169.2,371.49c.44-2.77-1.16-5.31-4.01-5.31-3,0-4.85,2.46-5.3,5.31h9.32Z"/>
        <path class="k" d="M195.63,381.11l1.11.77c2.5,1.69,6.18,3.77,9.57,3.77,1.31,0,3.04-.69,3.28-2.23.35-2.23-2.02-2.31-3.6-2.54-6.48-.92-12.21-3.62-11-11.32,1.62-10.24,12.58-14.32,21.35-14.32,5.08,0,11.24,1,15.31,3.46l-6.64,11.32c-2.25-1.85-5.39-3.39-8.63-3.39-1.23,0-2.91.38-3.14,1.85-.32,2,1.82,2.16,4.52,2.62,6.9,1.15,12.29,3.62,10.99,11.86-1.68,10.62-12.92,15.01-22.16,15.01-6.47,0-12.47-2-17.99-4.54l7.03-12.32Z"/>
        <path class="k" d="M267.92,373.87c-1.8-1.77-3.93-3.39-6.78-3.39-3.62,0-6.61,2.39-7.2,6.08-.51,3.23,1.69,5.85,4.93,5.85s5.63-1.54,8.2-3.16l-3.5,16.79c-3.24,1-6.85,1.92-10.31,1.92-13.24,0-21.54-7.47-19.37-21.17,1.91-12.09,12.26-21.56,24.5-21.56,4.16,0,8.35.77,12.15,2.08l-2.61,16.55Z"/>
        <path class="k" d="M301.46,391.66h-.46c-4.23,3.85-7.85,6.31-13.47,6.31-11.09,0-15.47-11.24-13.91-21.17,1.63-10.32,9.64-21.56,21.19-21.56,4.93,0,8.73,1.77,11.02,5.77h.46l.15-4.85h19.48l-6.45,40.88h-19.48l1.47-5.39ZM297.6,382.42c3.77,0,5.79-3,6.28-6.16.5-3.16-1.29-5.47-4.45-5.47s-5.57,2.62-6.05,5.62c-.51,3.23.59,6.01,4.21,6.01Z"/>
        <path class="k" d="M351.3,362.71h.46c4.55-4.47,7.95-7.47,14.35-7.47,10.16,0,12.96,7.62,11.54,16.63l-3.97,25.18h-19.86l3.15-19.94c.38-2.39.91-5.77-2.48-5.77s-3.85,3.39-4.22,5.77l-3.15,19.94h-19.87l6.45-40.88h19.4l-1.8,6.54Z"/>
        <path class="k" d="M437.24,362.63h.62c2.97-4.7,8.79-7.39,13.95-7.39,11.47,0,15.32,10.78,13.7,21.02-1.52,9.62-9.43,21.71-20.59,21.71-4.47,0-9.46-2.54-11.06-6.54h-.54l-.11,6.54-2.52,15.94h-19.86l9.11-57.75h18.94l-1.64,6.47ZM435.66,376.57c-.49,3.08.85,5.85,4.16,5.85,3.08,0,5.67-3.23,6.11-6.01.45-2.85-1.27-5.62-4.27-5.62-3.31,0-5.52,2.77-5.99,5.78Z"/>
        <path class="k" d="M505.6,375.41c-1.88-1.23-3.19-2.23-5.73-2.23-5.16,0-8.26,3.08-9.07,8.16l-2.48,15.71h-19.87l6.45-40.88h19.87l-1.33,5.47h.46c4.39-5.39,8.19-6.54,14.87-6.39l-3.18,20.17Z"/>
        <path class="k" d="M558.23,377.11c-2.14,13.55-15.3,20.87-28.08,20.87s-23.64-7.31-21.5-20.87c2.26-14.32,14.77-21.87,28.24-21.87s23.6,7.55,21.34,21.87ZM527.94,376.8c-.51,3.23,1.58,5.62,4.66,5.62s5.92-2.39,6.43-5.62c.52-3.31-1.29-6.01-4.6-6.01s-5.97,2.7-6.49,6.01Z"/>
        <path class="k" d="M569.39,356.17h19.87l-9.11,57.75h-19.87l9.11-57.75ZM592.25,343.54c-1.06,6.7-6.75,9.62-12.45,9.62s-10.47-2.93-9.42-9.62c.94-5.93,6.2-9.55,12.44-9.55s10.36,3.62,9.43,9.55Z"/>
        <path class="k" d="M612.91,379.96c-.52,3.31-.57,7.01,3.59,7.01,2.08,0,3.85-1.46,4.54-3.39h19.33c-4.17,9.86-15.9,14.4-25.29,14.4-12.86,0-23.59-6.62-21.37-20.71,2.14-13.55,13.95-22.02,26.96-22.02,14.55,0,24.54,9.39,21.12,24.72h-28.87ZM623.57,371.49c.44-2.77-1.16-5.31-4.01-5.31-3,0-4.85,2.46-5.3,5.31h9.32Z"/>
        <path class="k" d="M681.25,373.87c-1.8-1.77-3.93-3.39-6.78-3.39-3.62,0-6.61,2.39-7.2,6.08-.51,3.23,1.69,5.85,4.93,5.85s5.63-1.54,8.2-3.16l-3.5,16.79c-3.24,1-6.85,1.92-10.31,1.92-13.24,0-21.54-7.47-19.37-21.17,1.91-12.09,12.26-21.56,24.5-21.56,4.16,0,8.35.77,12.14,2.08l-2.61,16.55Z"/>
        <path class="k" d="M714.14,356.7l6.67-.31-2.47,15.63-6.56-.38-4.01,25.41h-20.02l4.01-25.41-4.91.38,2.47-15.63,4.8.31,2.16-13.71h20.02l-2.16,13.71Z"/>
      </g>
      <g>
        <path class="d" d="M136.39,375.41c-1.88-1.23-3.19-2.23-5.73-2.23-5.16,0-8.26,3.08-9.06,8.16l-2.48,15.71h-19.86l6.45-40.88h19.86l-1.32,5.47h.46c4.39-5.39,8.19-6.54,14.87-6.39l-3.18,20.17Z"/>
        <path class="d" d="M158.55,379.96c-.52,3.31-.57,7.01,3.59,7.01,2.08,0,3.85-1.46,4.54-3.39h19.33c-4.17,9.86-15.9,14.4-25.29,14.4-12.86,0-23.59-6.62-21.37-20.71,2.14-13.55,13.95-22.02,26.96-22.02,14.55,0,24.54,9.39,21.12,24.72h-28.87ZM169.2,371.49c.44-2.77-1.16-5.31-4.01-5.31-3,0-4.85,2.46-5.3,5.31h9.32Z"/>
        <path class="d" d="M195.63,381.11l1.11.77c2.5,1.69,6.18,3.77,9.57,3.77,1.31,0,3.04-.69,3.28-2.23.35-2.23-2.02-2.31-3.6-2.54-6.48-.92-12.21-3.62-11-11.32,1.62-10.24,12.58-14.32,21.35-14.32,5.08,0,11.24,1,15.31,3.46l-6.64,11.32c-2.25-1.85-5.39-3.39-8.63-3.39-1.23,0-2.91.38-3.14,1.85-.32,2,1.82,2.16,4.52,2.62,6.9,1.15,12.29,3.62,10.99,11.86-1.68,10.62-12.92,15.01-22.16,15.01-6.47,0-12.47-2-17.99-4.54l7.03-12.32Z"/>
        <path class="d" d="M267.92,373.87c-1.8-1.77-3.93-3.39-6.78-3.39-3.62,0-6.61,2.39-7.2,6.08-.51,3.23,1.69,5.85,4.93,5.85s5.63-1.54,8.2-3.16l-3.5,16.79c-3.24,1-6.85,1.92-10.31,1.92-13.24,0-21.54-7.47-19.37-21.17,1.91-12.09,12.26-21.56,24.5-21.56,4.16,0,8.35.77,12.15,2.08l-2.61,16.55Z"/>
        <path class="d" d="M301.46,391.66h-.46c-4.23,3.85-7.85,6.31-13.47,6.31-11.09,0-15.47-11.24-13.91-21.17,1.63-10.32,9.64-21.56,21.19-21.56,4.93,0,8.73,1.77,11.02,5.77h.46l.15-4.85h19.48l-6.45,40.88h-19.48l1.47-5.39ZM297.6,382.42c3.77,0,5.79-3,6.28-6.16.5-3.16-1.29-5.47-4.45-5.47s-5.57,2.62-6.05,5.62c-.51,3.23.59,6.01,4.21,6.01Z"/>
        <path class="d" d="M351.3,362.71h.46c4.55-4.47,7.95-7.47,14.35-7.47,10.16,0,12.96,7.62,11.54,16.63l-3.97,25.18h-19.86l3.15-19.94c.38-2.39.91-5.77-2.48-5.77s-3.85,3.39-4.22,5.77l-3.15,19.94h-19.87l6.45-40.88h19.4l-1.8,6.54Z"/>
        <path class="d" d="M437.24,362.63h.62c2.97-4.7,8.79-7.39,13.95-7.39,11.47,0,15.32,10.78,13.7,21.02-1.52,9.62-9.43,21.71-20.59,21.71-4.47,0-9.46-2.54-11.06-6.54h-.54l-.11,6.54-2.52,15.94h-19.86l9.11-57.75h18.94l-1.64,6.47ZM435.66,376.57c-.49,3.08.85,5.85,4.16,5.85,3.08,0,5.67-3.23,6.11-6.01.45-2.85-1.27-5.62-4.27-5.62-3.31,0-5.52,2.77-5.99,5.78Z"/>
        <path class="d" d="M505.6,375.41c-1.88-1.23-3.19-2.23-5.73-2.23-5.16,0-8.26,3.08-9.07,8.16l-2.48,15.71h-19.87l6.45-40.88h19.87l-1.33,5.47h.46c4.39-5.39,8.19-6.54,14.87-6.39l-3.18,20.17Z"/>
        <path class="d" d="M558.23,377.11c-2.14,13.55-15.3,20.87-28.08,20.87s-23.64-7.31-21.5-20.87c2.26-14.32,14.77-21.87,28.24-21.87s23.6,7.55,21.34,21.87ZM527.94,376.8c-.51,3.23,1.58,5.62,4.66,5.62s5.92-2.39,6.43-5.62c.52-3.31-1.29-6.01-4.6-6.01s-5.97,2.7-6.49,6.01Z"/>
        <path class="d" d="M569.39,356.17h19.87l-9.11,57.75h-19.87l9.11-57.75ZM592.25,343.54c-1.06,6.7-6.75,9.62-12.45,9.62s-10.47-2.93-9.42-9.62c.94-5.93,6.2-9.55,12.44-9.55s10.36,3.62,9.43,9.55Z"/>
        <path class="d" d="M612.91,379.96c-.52,3.31-.57,7.01,3.59,7.01,2.08,0,3.85-1.46,4.54-3.39h19.33c-4.17,9.86-15.9,14.4-25.29,14.4-12.86,0-23.59-6.62-21.37-20.71,2.14-13.55,13.95-22.02,26.96-22.02,14.55,0,24.54,9.39,21.12,24.72h-28.87ZM623.57,371.49c.44-2.77-1.16-5.31-4.01-5.31-3,0-4.85,2.46-5.3,5.31h9.32Z"/>
        <path class="d" d="M681.25,373.87c-1.8-1.77-3.93-3.39-6.78-3.39-3.62,0-6.61,2.39-7.2,6.08-.51,3.23,1.69,5.85,4.93,5.85s5.63-1.54,8.2-3.16l-3.5,16.79c-3.24,1-6.85,1.92-10.31,1.92-13.24,0-21.54-7.47-19.37-21.17,1.91-12.09,12.26-21.56,24.5-21.56,4.16,0,8.35.77,12.14,2.08l-2.61,16.55Z"/>
        <path class="d" d="M714.14,356.7l6.67-.31-2.47,15.63-6.56-.38-4.01,25.41h-20.02l4.01-25.41-4.91.38,2.47-15.63,4.8.31,2.16-13.71h20.02l-2.16,13.71Z"/>
      </g>
    </g>
  </g>
</svg>